<svg width="37" height="37" viewBox="0 0 37 37" fill="none" xmlns="http://www.w3.org/2000/svg">
<g filter="url(#filter0_d_1_1607)">
<path d="M18.501 29.0003C26.5081 29.0003 32.9992 22.5083 32.9992 14.5001C32.9992 6.49193 26.5081 0 18.501 0C10.4939 0 4.00281 6.49193 4.00281 14.5001C4.00281 22.5083 10.4939 29.0003 18.501 29.0003Z" fill="white"/>
<path fill-rule="evenodd" clip-rule="evenodd" d="M29.5187 15.5255H25.1235C25.2901 16.4799 26.2001 16.8462 26.9882 16.8462C27.4876 16.8462 27.9315 16.7351 28.3644 16.5355L28.2424 17.845C27.754 18.0447 27.1659 18.1225 26.5776 18.1225C24.6243 18.1225 23.248 16.9794 23.248 15.0372C23.248 13.3502 24.4799 12.085 26.3667 12.085C28.4976 12.085 29.563 13.439 29.5187 15.5255ZM21.572 18.0115C21.4832 17.8006 21.3499 17.4566 21.239 17.1125L20.9838 16.2579C20.8505 15.8031 20.673 15.6143 20.2401 15.6143H19.5076V18.0115H17.8095V10.176H19.5076V14.4933H19.6964L21.3055 12.196H23.1923L21.2944 14.5931H21.3944C22.149 14.5931 22.371 15.0149 22.5597 15.6365L22.8816 16.7131C22.9925 17.1125 23.2257 17.6786 23.4031 18.0115H21.572ZM16.1336 16.7131C16.5775 16.7131 16.9438 16.5909 17.2213 16.4578L17.066 17.8673C16.7108 18.0447 16.2112 18.1336 15.7784 18.1336C13.9471 18.1336 12.682 16.9461 12.682 15.0927C12.682 13.2614 13.925 12.085 15.7673 12.085C16.4443 12.085 16.966 12.2181 17.4986 12.4622L17.0103 13.7718C16.7551 13.6165 16.4 13.4945 16.0226 13.4945C15.0904 13.4945 14.4799 14.1048 14.4799 15.0927C14.4799 16.0693 15.1236 16.724 16.1336 16.7131ZM10.4289 11.4523H12.1602V10.176H10.4289V11.4523ZM10.4289 18.0115H12.1602V12.196H10.4289V18.0115ZM29.8853 14.8707V10.9196L31.6165 10.2204V12.3069H32.7818L32.5487 13.6054H31.5943V14.9372C31.5943 16.2309 32.0846 17.142 32.6045 17.8736C32.8626 16.7909 33 15.6615 33 14.4998C32.9999 6.49174 26.508 0 18.4999 0C11.9978 0 6.49544 4.27975 4.65574 10.176H10.0513L9.8405 11.7298H7.58746V18.0115H5.74501V11.7298H4.26536C4.09195 12.6265 4 13.5524 4 14.4998C4.00012 22.508 10.4919 28.9998 18.5001 28.9998C25.2971 28.9998 31.0008 24.3228 32.571 18.0115H30.8619C30.5622 17.4899 29.8741 16.5465 29.8853 14.8707ZM26.4221 13.2836C25.6897 13.2836 25.2236 13.7608 25.0792 14.3934H27.6874C27.5986 13.6943 27.1103 13.2836 26.4221 13.2836Z" fill="#D52B1E"/>
</g>
<defs>
<filter id="filter0_d_1_1607" x="0" y="0" width="37" height="37.0002" filterUnits="userSpaceOnUse" color-interpolation-filters="sRGB">
<feFlood flood-opacity="0" result="BackgroundImageFix"/>
<feColorMatrix in="SourceAlpha" type="matrix" values="0 0 0 0 0 0 0 0 0 0 0 0 0 0 0 0 0 0 127 0" result="hardAlpha"/>
<feOffset dy="4"/>
<feGaussianBlur stdDeviation="2"/>
<feComposite in2="hardAlpha" operator="out"/>
<feColorMatrix type="matrix" values="0 0 0 0 0 0 0 0 0 0 0 0 0 0 0 0 0 0 0.25 0"/>
<feBlend mode="normal" in2="BackgroundImageFix" result="effect1_dropShadow_1_1607"/>
<feBlend mode="normal" in="SourceGraphic" in2="effect1_dropShadow_1_1607" result="shape"/>
</filter>
</defs>
</svg>
